<svg width="375" height="262" viewBox="0 0 375 262" fill="none" xmlns="http://www.w3.org/2000/svg">
<g clip-path="url(#clip0)">
<path d="M273.874 25.7467C271.697 20.7623 274.682 14.2595 279.935 12.5448C285.188 10.83 291.562 14.2776 292.875 19.5442C292.026 17.5161 291.669 15.3229 291.832 13.1369C291.995 10.9509 292.674 8.83178 293.815 6.94616C294.957 5.06053 296.529 3.45983 298.409 2.26991C300.289 1.08 302.426 0.333325 304.651 0.0886016C306.875 -0.156122 309.128 0.107782 311.231 0.859561C313.334 1.61134 315.23 2.83049 316.77 4.42115C318.31 6.01181 319.452 7.9306 320.107 10.0266C320.762 12.1227 320.911 14.3388 320.542 16.5007C323.709 11.9304 330.503 10.2043 335.54 12.6906C340.577 15.1769 343.2 21.5514 341.329 26.7616L272 26.6404" fill="#F2F2F2"/>
<path d="M126.586 251.531C139.107 256.609 152.401 259.622 165.927 260.445C172.265 260.832 178.722 260.851 185.026 260.031C190.551 259.313 196.162 257.839 200.767 254.65C205.37 251.407 208.61 246.636 209.883 241.226C211.291 235.523 210.699 229.549 208.687 224.057C206.612 218.371 203.33 213.18 199.058 208.825C195.228 204.988 189.864 201.497 184.128 202.154C178.615 202.785 174.605 207.149 173.136 212.198C171.376 218.251 173.401 224.653 176.148 230.103C180.808 239.346 188.285 247.105 197.141 252.621C206.05 258.205 216.292 261.418 226.856 261.944C237.442 262.41 248.827 260.007 257.167 253.311C261.56 249.816 264.697 245.038 266.119 239.675C267.6 234.014 267.213 228.036 265.931 222.377C263.149 210.093 255.8 199.533 251.545 187.775C250.49 184.905 249.677 181.956 249.116 178.956C248.976 178.187 247.778 178.513 247.918 179.28C250.118 191.376 257.083 201.791 261.654 213.056C265.818 223.317 268.297 235.915 262.128 245.934C256.579 254.946 245.559 259.339 235.281 260.461C225.231 261.557 214.943 259.794 205.73 255.764C196.457 251.707 188.147 245.387 182.119 237.358C178.842 232.994 176.019 228.051 174.572 222.799C173.09 217.424 173.438 211.335 177.357 206.993C179.087 205.017 181.495 203.729 184.128 203.37C186.864 203.035 189.603 203.786 192.008 205.037C197.17 207.723 201.011 212.392 203.975 217.22C207.038 222.208 209.195 227.863 209.409 233.724C209.609 239.174 208.148 244.761 204.802 249.172C197.894 258.279 184.91 259.385 174.255 259.455C161.195 259.534 148.207 257.55 135.792 253.58C132.792 252.62 129.833 251.546 126.916 250.358C126.178 250.058 125.857 251.235 126.586 251.531H126.586Z" fill="#E6E6E6"/>
<path d="M94.2839 212.061L90.9469 207.046C90.558 206.46 90.4223 205.747 90.5697 205.063C90.7171 204.379 91.1356 203.781 91.7332 203.398L112.06 187.929C112.658 187.549 113.387 187.416 114.085 187.56C114.783 187.705 115.395 188.114 115.785 188.699L119.122 193.714C119.511 194.3 119.647 195.014 119.499 195.697C119.352 196.381 118.934 196.98 118.336 197.362L98.0094 212.831C97.4109 213.212 96.6825 213.344 95.984 213.2C95.2856 213.056 94.6742 212.646 94.2839 212.061Z" fill="#2F2E41"/>
<path d="M91.7551 203.421L97.1161 200.544C97.7425 200.209 98.479 200.131 99.1643 200.327C99.8495 200.522 100.427 200.976 100.771 201.589L115.006 226.698C115.348 227.311 115.428 228.032 115.228 228.703C115.028 229.374 114.564 229.94 113.939 230.277L108.578 233.154C107.951 233.489 107.215 233.567 106.529 233.371C105.844 233.175 105.266 232.721 104.923 232.109L90.6882 207C90.3458 206.386 90.2659 205.665 90.4659 204.994C90.6659 204.324 91.1295 203.758 91.7551 203.421Z" fill="#2F2E41"/>
<path d="M54.4918 157.215C53.8089 157.214 53.1519 156.959 52.6539 156.501C52.1558 156.044 51.8539 155.418 51.8092 154.751L51.4097 148.779C51.363 148.081 51.6013 147.394 52.0721 146.868C52.543 146.343 53.2078 146.022 53.9203 145.976L101.715 142.911C102.468 142.863 103.224 142.961 103.939 143.198C104.654 143.436 105.314 143.809 105.882 144.296C106.449 144.784 106.913 145.376 107.247 146.039C107.581 146.702 107.778 147.423 107.828 148.16C107.877 148.898 107.778 149.638 107.535 150.338C107.292 151.038 106.911 151.684 106.413 152.24C105.915 152.795 105.31 153.25 104.633 153.577C103.956 153.903 103.22 154.097 102.466 154.145L54.6718 157.209C54.6116 157.213 54.5516 157.215 54.4918 157.215Z" fill="#62BF84"/>
<path d="M63.9162 157.985C63.22 157.984 62.5512 157.719 62.0499 157.246C61.5486 156.773 61.2537 156.128 61.2269 155.447L60.8863 146.526C60.8731 146.18 60.9296 145.835 61.0526 145.511C61.1756 145.186 61.3627 144.889 61.6032 144.635C61.8438 144.381 62.133 144.176 62.4543 144.032C62.7757 143.888 63.123 143.807 63.4763 143.794L102.779 142.356C103.493 142.33 104.188 142.582 104.711 143.058C105.235 143.533 105.544 144.193 105.57 144.892L105.911 153.812C105.924 154.158 105.868 154.503 105.745 154.828C105.622 155.152 105.434 155.45 105.194 155.704C104.953 155.957 104.664 156.162 104.343 156.307C104.021 156.451 103.674 156.532 103.321 156.545L64.018 157.983C63.984 157.984 63.9499 157.985 63.9162 157.985Z" fill="#CCCCCC"/>
<path d="M127.025 252.302V232.942C127.025 216.043 119.494 199.836 106.057 189.228C96.0132 181.299 81.4657 175.371 60.6256 176.695L68.5647 145.605L0 191.534L67.1213 237.463L60.2648 208.139C60.2648 208.139 102.125 200.367 127.025 252.302Z" fill="#1C52A4"/>
<path d="M79.0743 221.701L74.1296 218.181C73.5527 217.769 73.1662 217.15 73.0548 216.46C72.9434 215.77 73.1162 215.065 73.5353 214.499L103.5 174.151C103.92 173.586 104.553 173.208 105.258 173.099C105.963 172.99 106.683 173.159 107.261 173.569L112.206 177.089C112.782 177.501 113.169 178.119 113.28 178.81C113.392 179.5 113.219 180.205 112.8 180.771L82.8352 221.119C82.4147 221.684 81.7827 222.062 81.0776 222.171C80.3725 222.28 79.6521 222.111 79.0743 221.701Z" fill="#2F2E41"/>
<path d="M73.5638 214.512L77.524 209.952C77.987 209.42 78.6466 209.09 79.3581 209.034C80.0696 208.977 80.7749 209.2 81.3192 209.652L103.765 228.138C104.309 228.592 104.646 229.237 104.704 229.934C104.761 230.631 104.534 231.321 104.073 231.854L100.112 236.414C99.6494 236.946 98.9898 237.276 98.2783 237.333C97.5668 237.389 96.8615 237.167 96.3172 236.715L73.8709 218.228C73.3276 217.775 72.9902 217.129 72.9326 216.432C72.875 215.736 73.1021 215.045 73.5638 214.512Z" fill="#2F2E41"/>
<path d="M100.687 132.999C112.354 132.999 121.812 123.74 121.812 112.317C121.812 100.895 112.354 91.6355 100.687 91.6355C89.0206 91.6355 79.5627 100.895 79.5627 112.317C79.5627 123.74 89.0206 132.999 100.687 132.999Z" fill="#62BF84"/>
<path d="M88 100L95 97V99C96 99.6667 98.3 101.6 99.5 102C101 102.5 106 104 107.5 104C108.7 104 112.667 106.667 114.5 108C116.333 110 120.1 114.3 120.5 115.5C121 117 121.5 115.5 121.5 114.5V110.5V107C121.667 104.667 121.9 99.9 121.5 99.5C121 99 120 93.5 119.5 93.5C119.1 93.5 115.667 89.5 114 87.5L104 85.5L95.5 84L86 89C83.3333 90 77.9 92 77.5 92C77.1 92 77 91 77 90.5C75.6667 92.3333 72.8 96 72 96C71 96 71 101.5 71 102.5C71 103.3 74.3333 107.167 76 109L80.5 110.5L82 107L83.5 104L88 100Z" fill="#1E1E1E" stroke="#1E1E1E"/>
<path d="M91.3948 121.427C90.6797 121.442 89.9697 121.306 89.3126 121.03C88.8689 120.824 88.4766 120.525 88.1632 120.155C87.8498 119.784 87.6229 119.352 87.4983 118.887C87.4034 118.557 87.3875 118.211 87.4519 117.875C87.5164 117.539 87.6594 117.221 87.8697 116.948C88.4214 116.255 89.3741 115.926 90.4949 116.01L87.7207 108.406L88.5007 108.134L91.7622 117.072L91.0268 116.909C90.1743 116.72 89.0686 116.762 88.5232 117.447C88.3911 117.624 88.3025 117.828 88.2642 118.044C88.2259 118.26 88.239 118.482 88.3025 118.692C88.3972 119.038 88.5669 119.359 88.8 119.635C89.0331 119.911 89.3241 120.134 89.6533 120.29C90.8063 120.8 92.1559 120.619 93.6726 120.349L93.8202 121.147C93.0219 121.311 92.2102 121.405 91.3948 121.427Z" fill="#2F2E41"/>
<path d="M85.8933 112.899L81.5269 113.797L81.6972 114.591L86.0636 113.693L85.8933 112.899Z" fill="#2F2E41"/>
<path d="M99.6755 110.064L95.3091 110.962L95.4794 111.756L99.8458 110.857L99.6755 110.064Z" fill="#2F2E41"/>
<path d="M118.327 201.081H82.7048C81.7713 201.08 80.8764 200.717 80.2163 200.07C79.5563 199.424 79.185 198.548 79.184 197.634L86.6415 141.645C86.6474 140.735 87.0209 139.865 87.6802 139.224C88.3396 138.583 89.2313 138.223 90.1605 138.224H102.802C107.852 138.23 112.693 140.196 116.263 143.692C119.834 147.187 121.842 151.927 121.848 156.87V197.634C121.847 198.548 121.475 199.424 120.815 200.07C120.155 200.717 119.26 201.08 118.327 201.081Z" fill="#CCCCCC"/>
<path d="M62.6993 177.704C62.1795 177.704 61.6707 177.557 61.2341 177.281C60.7976 177.005 60.4519 176.611 60.2386 176.147L57.7364 170.686C57.5916 170.37 57.5119 170.029 57.5016 169.683C57.4914 169.337 57.5508 168.993 57.6766 168.669C57.8024 168.346 57.992 168.05 58.2347 167.798C58.4774 167.546 58.7683 167.344 59.0909 167.202L102.792 148.009C103.481 147.706 104.224 147.539 104.979 147.518C105.733 147.496 106.485 147.621 107.19 147.884C107.896 148.147 108.542 148.543 109.091 149.05C109.64 149.558 110.082 150.166 110.391 150.84C110.7 151.515 110.87 152.242 110.892 152.981C110.914 153.72 110.787 154.456 110.518 155.146C110.25 155.837 109.845 156.469 109.326 157.007C108.808 157.545 108.187 157.977 107.498 158.279L63.7972 177.473C63.452 177.625 63.0778 177.704 62.6993 177.704Z" fill="#62BF84"/>
<path d="M75.446 174.885C74.9263 174.885 74.4175 174.738 73.9809 174.462C73.5444 174.186 73.1987 173.792 72.9855 173.328L68.7114 164C68.42 163.362 68.399 162.637 68.6529 161.984C68.9068 161.33 69.415 160.803 70.066 160.516L105.951 144.755C106.274 144.614 106.621 144.535 106.975 144.525C107.328 144.515 107.68 144.574 108.011 144.697C108.341 144.82 108.644 145.005 108.901 145.243C109.158 145.481 109.365 145.766 109.509 146.081L113.784 155.409C113.928 155.725 114.008 156.066 114.018 156.412C114.028 156.758 113.969 157.102 113.843 157.426C113.717 157.749 113.528 158.045 113.285 158.297C113.042 158.549 112.752 158.751 112.429 158.893L76.544 174.654C76.1988 174.806 75.8246 174.884 75.446 174.885Z" fill="#CCCCCC"/>
<path d="M247.975 181.753V162.394C247.975 145.494 255.506 129.287 268.943 118.679C278.987 110.751 293.534 104.822 314.374 106.147L306.435 75.0559L375 120.985L307.879 166.915L314.735 137.591C314.735 137.591 272.875 129.818 247.975 181.753Z" fill="#1C52A4"/>
<path d="M285.244 84.8918C284.359 84.1927 283.706 83.2523 283.367 82.1897C283.028 81.127 283.019 79.9899 283.34 78.9219C283.661 77.854 284.298 76.9033 285.171 76.19C286.044 75.4768 287.114 75.033 288.245 74.9148L335.871 69.936C336.581 69.8626 337.291 70.0679 337.847 70.5068C338.402 70.9457 338.757 71.5823 338.834 72.2771L338.628 72.2987L338.834 72.2771L339.483 78.2287C339.52 78.5729 339.488 78.921 339.388 79.2531C339.288 79.5851 339.123 79.8947 338.901 80.1641C338.679 80.4335 338.405 80.6574 338.094 80.823C337.784 80.9887 337.443 81.0929 337.091 81.1296L289.465 86.1084C289.259 86.13 289.051 86.1409 288.844 86.1409C287.533 86.1417 286.262 85.7006 285.244 84.8918Z" fill="#62BF84"/>
<path d="M299.274 126.007V120.022C299.274 119.323 299.558 118.653 300.063 118.159C300.568 117.665 301.252 117.387 301.966 117.386H352.92C353.634 117.387 354.318 117.665 354.823 118.159C355.327 118.653 355.611 119.323 355.612 120.022V126.007C355.611 126.706 355.327 127.376 354.823 127.87C354.318 128.365 353.634 128.642 352.92 128.643H301.966C301.252 128.642 300.568 128.365 300.063 127.87C299.558 127.376 299.274 126.706 299.274 126.007Z" fill="#62BF84"/>
<path d="M274.911 126.299C274.595 126.144 274.313 125.929 274.082 125.667C273.851 125.404 273.676 125.1 273.566 124.771L271.649 119.087C271.426 118.423 271.481 117.7 271.802 117.076C272.123 116.451 272.684 115.977 273.361 115.758L321.746 100.117C322.424 99.8976 323.163 99.9511 323.801 100.266C324.439 100.58 324.923 101.13 325.147 101.793L324.95 101.857L325.147 101.793L327.064 107.477C327.287 108.141 327.231 108.864 326.91 109.488C326.589 110.112 326.029 110.586 325.351 110.806L276.966 126.447C276.631 126.556 276.276 126.6 275.924 126.574C275.571 126.549 275.227 126.455 274.911 126.299V126.299Z" fill="#62BF84"/>
<path d="M338.344 128.055L316.629 108.886C316.1 108.417 315.782 107.762 315.745 107.064C315.708 106.366 315.955 105.683 316.433 105.163L320.527 100.718C321.005 100.199 321.674 99.8867 322.387 99.8506C323.1 99.8145 323.799 100.057 324.329 100.525L346.044 119.694C346.574 120.163 346.892 120.818 346.929 121.516C346.965 122.214 346.718 122.897 346.241 123.417L342.147 127.862C341.911 128.12 341.625 128.329 341.305 128.478C340.986 128.627 340.64 128.712 340.286 128.729C340.239 128.732 340.191 128.733 340.144 128.733C339.479 128.734 338.837 128.492 338.344 128.055Z" fill="#62BF84"/>
<path d="M283.138 59.1903C294.805 59.1903 304.262 49.9307 304.262 38.5084C304.262 27.086 294.805 17.8264 283.138 17.8264C271.471 17.8264 262.013 27.086 262.013 38.5084C262.013 49.9307 271.471 59.1903 283.138 59.1903Z" fill="#62BF84"/>
<path d="M258.414 120.588C256.936 118.116 256.156 115.303 256.156 112.439C256.156 109.574 256.936 106.761 258.414 104.289L280.806 66.3167C281.042 65.916 281.382 65.5833 281.791 65.3519C282.201 65.1206 282.665 64.9988 283.138 64.9988C283.61 64.9988 284.075 65.1206 284.484 65.3519C284.893 65.5833 285.233 65.916 285.469 66.3167L319.949 124.785C320.185 125.185 320.309 125.64 320.309 126.103C320.309 126.565 320.185 127.02 319.949 127.42C319.712 127.821 319.372 128.154 318.963 128.385C318.554 128.617 318.089 128.738 317.617 128.738H272.832C269.906 128.755 267.028 128.01 264.494 126.577C261.96 125.145 259.861 123.078 258.414 120.588Z" fill="#CCCCCC"/>
<path d="M301.972 42.8684C303.074 42.5667 304.445 42.1911 305.373 41.3983C305.648 41.1559 305.855 40.8831 305.98 40.599C306.105 40.3149 306.144 40.0265 306.096 39.7538C306.067 39.5587 305.972 39.3798 305.819 39.231C305.667 39.0822 305.46 38.9677 305.215 38.8963C304.581 38.7207 303.753 38.8521 302.924 39.2466L302.696 34.5587L302.017 34.6658L302.285 40.177L302.796 39.8647C303.388 39.5028 304.243 39.1779 304.871 39.3512C305.026 39.3988 305.156 39.4738 305.252 39.5703C305.348 39.6668 305.406 39.7823 305.423 39.9077C305.457 40.1111 305.427 40.3258 305.334 40.5373C305.241 40.7489 305.088 40.9522 304.885 41.1335C304.163 41.7504 303.078 42.0817 301.839 42.4213L301.972 42.8684Z" fill="#2F2E41"/>
<path d="M298.281 33.3726H293.819V34.1836H298.281V33.3726Z" fill="#2F2E41"/>
<path d="M270.613 14.1168C270.026 11.7695 268.938 9.57025 267.422 7.66371C265.905 5.75717 263.993 4.18647 261.812 3.05482C259.576 1.92942 257.111 1.30588 254.597 1.22953C252.084 1.15317 249.584 1.6259 247.28 2.61338C244.921 3.60281 242.826 5.11007 241.156 7.01869C239.487 8.9273 238.288 11.1862 237.653 13.6207C236.998 16.0698 236.908 18.6307 237.388 21.1183C237.977 23.7531 239.119 26.2392 240.742 28.4185C242.378 30.7385 244.302 32.844 246.068 35.0668C247.841 37.2942 249.456 39.6383 250.901 42.0824C255.253 49.4465 258.013 57.6079 259.009 66.06C259.345 68.6128 259.409 71.193 259.199 73.7588C258.723 78.7412 256.752 83.6213 252.226 86.3324C249.821 87.7737 247.044 88.518 244.297 89.0387C241.215 89.6782 238.059 89.9196 234.913 89.7567C229.593 89.3866 224.269 87.2131 221.18 82.7869C220.496 81.8012 219.96 80.7243 219.59 79.5893C219.344 78.8425 220.543 78.5226 220.788 79.2659C222.425 84.2327 227.391 87.2942 232.417 88.2277C235.547 88.7411 238.743 88.7381 241.872 88.2187C244.714 87.8032 247.643 87.228 250.248 86C252.615 84.9192 254.579 83.1421 255.865 80.9165C257.027 78.7679 257.731 76.4101 257.933 73.9867C258.487 68.6808 257.585 63.1878 256.235 58.0558C254.79 52.5631 252.574 47.2932 249.65 42.397C248.189 39.9505 246.554 37.608 244.756 35.387C242.976 33.1901 241.077 31.0775 239.472 28.7503C237.887 26.5549 236.771 24.0692 236.189 21.4417C235.695 18.9207 235.74 16.3266 236.324 13.8239C236.887 11.3539 237.989 9.03232 239.554 7.01822C241.119 5.00412 243.11 3.34512 245.392 2.15495C249.868 -0.157063 255.323 -0.710626 260.111 0.993007C264.758 2.67182 268.541 6.0783 270.636 10.4721C271.14 11.538 271.534 12.6506 271.811 13.7934C271.994 14.5549 270.796 14.8798 270.613 14.1168V14.1168Z" fill="#1E1E1E"/>
<path d="M266.575 15.1057C265.796 12.9321 264.226 11.1158 262.166 10.004C260.105 8.89219 257.698 8.5629 255.405 9.07909C254.627 9.25723 254.295 8.08448 255.075 7.90596C257.687 7.27865 260.444 7.63801 262.798 8.91243C265.151 10.1868 266.928 12.2827 267.773 14.7823C268.034 15.5243 266.834 15.8429 266.575 15.1057Z" fill="#1E1E1E"/>
<path d="M266.385 19.5025C266.148 18.9589 266.14 18.3452 266.364 17.796C266.587 17.2468 267.024 16.8068 267.579 16.5727L273.287 14.1706C273.842 13.937 274.47 13.9289 275.031 14.1481C275.592 14.3672 276.041 14.7956 276.28 15.3391C276.519 15.8826 276.527 16.4966 276.303 17.0461C276.079 17.5956 275.642 18.0355 275.086 18.2691L269.378 20.6711C268.823 20.9047 268.196 20.9128 267.635 20.6936C267.073 20.4744 266.624 20.046 266.385 19.5025Z" fill="#1E1E1E"/>
<path d="M280.435 133.488L274.342 133.003C273.63 132.946 272.971 132.615 272.509 132.082C272.047 131.55 271.819 130.859 271.876 130.163L275.752 83.4233C275.813 82.6863 276.022 81.9683 276.366 81.3102C276.71 80.6521 277.183 80.0669 277.759 79.588C278.334 79.1091 279 78.7459 279.719 78.5191C280.438 78.2923 281.195 78.2063 281.948 78.2661C282.701 78.326 283.434 78.5304 284.106 78.8678C284.778 79.2052 285.376 79.6689 285.864 80.2324C286.353 80.7959 286.724 81.4482 286.955 82.152C287.187 82.8559 287.274 83.5974 287.213 84.3343L283.337 131.073C283.282 131.733 282.976 132.348 282.48 132.797C281.984 133.245 281.333 133.495 280.658 133.496C280.584 133.496 280.51 133.493 280.435 133.488Z" fill="#62BF84"/>
<path d="M25.8744 44.7467C23.6967 39.7623 26.6818 33.2595 31.9348 31.5448C37.1878 29.83 43.5617 33.2776 44.8751 38.5442C44.0259 36.5161 43.6689 34.3229 43.8321 32.1369C43.9952 29.9509 44.6741 27.8318 45.8154 25.9462C46.9567 24.0605 48.5292 22.4598 50.4093 21.2699C52.2894 20.08 54.4258 19.3333 56.6506 19.0886C58.8753 18.8439 61.1277 19.1078 63.2307 19.8596C65.3336 20.6113 67.2297 21.8305 68.77 23.4211C70.3102 25.0118 71.4525 26.9306 72.1071 29.0266C72.7616 31.1227 72.9106 33.3388 72.5423 35.5008C75.7088 30.9304 82.5032 29.2043 87.54 31.6906C92.5769 34.1769 95.1995 40.5514 93.3292 45.7616L24 45.6404" fill="#F2F2F2"/>
<path d="M297.845 21.72C299.381 22.24 299.893 23.8 300.405 23.8C300.917 23.8 301.429 25.88 301.941 26.92C302.393 27.8375 300.055 27.1362 300.904 28.0293C301.318 28.3084 301.531 28.48 301.429 28.48C301.188 28.2962 301.018 28.1485 300.904 28.0293C299.654 27.1862 296.568 25.3618 294.772 24.32H287.604C283.507 24.32 280.435 24.84 279.922 24.84C279.41 24.84 276.85 24.84 274.29 25.88C272.241 26.712 270.364 27.96 269.681 28.48C269.51 28.3067 268.862 28.584 267.633 31.08C266.097 34.2 266.609 44.6 266.609 45.64C266.609 46.68 266.609 48.24 267.633 50.32C268.452 51.984 268.657 54.1333 268.657 55C267.291 53.96 264.458 51.36 264.048 49.28C263.536 46.68 260.976 42 262.512 38.88L262 34.72L262.512 31.08L266.097 24.84C266.609 23.8 267.838 21.72 268.657 21.72C269.476 21.72 275.143 17.9067 277.874 16C278.826 16.046 280.037 16.1043 281.312 16.165C284.836 16.333 288.839 16.52 289.14 16.52C289.549 16.52 292.383 17.9067 293.748 18.6L297.845 21.72Z" fill="#1E1E1E"/>
<path d="M278.386 16C282.483 16 286.238 17.04 287.604 17.56C288.628 17.9067 290.778 18.704 291.188 19.12C291.7 19.64 296.309 21.2 297.845 21.72M297.845 21.72C299.381 22.24 299.893 23.8 300.405 23.8C300.917 23.8 301.429 25.88 301.941 26.92C302.454 27.96 299.381 26.92 301.429 28.48C301.839 28.48 297.162 25.7067 294.772 24.32C293.748 24.32 290.881 24.32 287.604 24.32C283.507 24.32 280.435 24.84 279.922 24.84C279.41 24.84 276.85 24.84 274.29 25.88C272.241 26.712 270.364 27.96 269.681 28.48C269.51 28.3067 268.862 28.584 267.633 31.08C266.097 34.2 266.609 44.6 266.609 45.64C266.609 46.68 266.609 48.24 267.633 50.32C268.452 51.984 268.657 54.1333 268.657 55C267.291 53.96 264.458 51.36 264.048 49.28C263.536 46.68 260.976 42 262.512 38.88M297.845 21.72L293.748 18.6C292.383 17.9067 289.549 16.52 289.14 16.52C288.73 16.52 281.459 16.1733 277.874 16C275.143 17.9067 269.476 21.72 268.657 21.72C267.838 21.72 266.609 23.8 266.097 24.84M262.512 38.88C263.741 36.384 265.414 28.48 266.097 24.84M262.512 38.88L262 34.72L262.512 31.08L266.097 24.84" stroke="#1E1E1E"/>
<path d="M145.79 97.1991C143.612 92.2147 146.597 85.7119 151.85 83.9972C157.103 82.2824 163.477 85.73 164.79 90.9966C163.941 88.9685 163.584 86.7753 163.747 84.5893C163.91 82.4033 164.589 80.2842 165.731 78.3986C166.872 76.5129 168.444 74.9122 170.325 73.7223C172.205 72.5324 174.341 71.7857 176.566 71.541C178.791 71.2963 181.043 71.5602 183.146 72.312C185.249 73.0637 187.145 74.2829 188.685 75.8735C190.225 77.4642 191.368 79.383 192.022 81.479C192.677 83.5751 192.826 85.7912 192.458 87.9531C195.624 83.3828 202.418 81.6567 207.455 84.143C212.492 86.6293 215.115 93.0038 213.244 98.214L143.915 98.0928" fill="#F2F2F2"/>
</g>
<defs>
<clipPath id="clip0">
<rect width="375" height="262" fill="white"/>
</clipPath>
</defs>
</svg>
